ISO-10303-21;
HEADER;
FILE_DESCRIPTION(('ViewDefinition [CoordinationView]'),'2;1');
FILE_NAME('ejemplo.ifc','2026-01-01T00:00:00',(''),(''),'visor-de-obra','herramientas/ejemplo.py','');
FILE_SCHEMA(('IFC4'));
ENDSEC;
DATA;
#1=IFCCARTESIANPOINT((0.000000,0.000000,0.000000));
#2=IFCAXIS2PLACEMENT3D(#1,$,$);
#3=IFCGEOMETRICREPRESENTATIONCONTEXT($,'Model',3,1.E-05,#2,$);
#4=IFCSIUNIT(*,.LENGTHUNIT.,$,.METRE.);
#5=IFCSIUNIT(*,.AREAUNIT.,$,.SQUARE_METRE.);
#6=IFCSIUNIT(*,.VOLUMEUNIT.,$,.CUBIC_METRE.);
#7=IFCUNITASSIGNMENT((#4,#5,#6));
#8=IFCPROJECT('CPcp0DQdq1ERer2FSfs3GT',$,'E04 · caseta de obra',$,$,$,$,(#3),#7);
#9=IFCCARTESIANPOINT((0.000000,0.000000,0.000000));
#10=IFCAXIS2PLACEMENT3D(#9,$,$);
#11=IFCLOCALPLACEMENT($,#10);
#12=IFCSITE('JWjw7KXkx8LYly9MZmzANa',$,'Solar',$,$,#11,$,$,.ELEMENT.,$,$,$,$,$);
#13=IFCCARTESIANPOINT((0.000000,0.000000,0.000000));
#14=IFCAXIS2PLACEMENT3D(#13,$,$);
#15=IFCLOCALPLACEMENT(#11,#14);
#16=IFCBUILDING('Qdq1ERer2FSfs3GTgt4HUh',$,'Caseta',$,$,#15,$,$,.ELEMENT.,$,$,$);
#17=IFCCARTESIANPOINT((0.000000,0.000000,0.000000));
#18=IFCAXIS2PLACEMENT3D(#17,$,$);
#19=IFCLOCALPLACEMENT(#15,#18);
#20=IFCBUILDINGSTOREY('BObo$CPcp0DQdq1ERer2FS',$,'Planta baja',$,$,#19,$,$,.ELEMENT.,0.000000);
#21=IFCCARTESIANPOINT((0.000000,0.000000,3.000000));
#22=IFCAXIS2PLACEMENT3D(#21,$,$);
#23=IFCLOCALPLACEMENT(#15,#22);
#24=IFCBUILDINGSTOREY('IViv6JWjw7KXkx8LYly9MZ',$,'Planta primera',$,$,#23,$,$,.ELEMENT.,3.000000);
#25=IFCRELAGGREGATES('HUhu5IViv6JWjw7KXkx8LY',$,$,$,#8,(#12));
#26=IFCRELAGGREGATES('Obo$CPcp0DQdq1ERer2FSf',$,$,$,#12,(#16));
#27=IFCRELAGGREGATES('Viv6JWjw7KXkx8LYly9MZm',$,$,$,#16,(#20,#24));
#28=IFCCARTESIANPOINT((0.000000,0.000000,-0.250000));
#29=IFCAXIS2PLACEMENT3D(#28,$,$);
#30=IFCLOCALPLACEMENT(#19,#29);
#31=IFCCARTESIANPOINT((0.000000,0.000000));
#32=IFCAXIS2PLACEMENT2D(#31,$);
#33=IFCRECTANGLEPROFILEDEF(.AREA.,$,#32,8.000000,6.000000);
#34=IFCCARTESIANPOINT((0.000000,0.000000,0.000000));
#35=IFCAXIS2PLACEMENT3D(#34,$,$);
#36=IFCDIRECTION((0.000000,0.000000,1.000000));
#37=IFCEXTRUDEDAREASOLID(#33,#35,#36,0.250000);
#38=IFCSHAPEREPRESENTATION(#3,'Body','SweptSolid',(#37));
#39=IFCPRODUCTDEFINITIONSHAPE($,$,(#38));
#40=IFCSLAB('MZmzANan_BObo$CPcp0DQd',$,'Solera',$,$,#30,#39,'Solera',.FLOOR.);
#41=IFCPROPERTYSINGLEVALUE('Reference',$,IFCLABEL('HA-25'),$);
#42=IFCPROPERTYSINGLEVALUE('LoadBearing',$,IFCLABEL('T'),$);
#43=IFCPROPERTYSINGLEVALUE('Thickness',$,IFCREAL(0.250000),$);
#44=IFCPROPERTYSET('Tgt4HUhu5IViv6JWjw7KXk',$,'Pset_SlabCommon',$,(#41,#42,#43));
#45=IFCRELDEFINESBYPROPERTIES('an_BObo$CPcp0DQdq1ERer',$,$,$,(#40),#44);
#46=IFCCARTESIANPOINT((0.000000,-3.000000,0.000000));
#47=IFCDIRECTION((1.000000,0.000000,0.000000));
#48=IFCAXIS2PLACEMENT3D(#46,$,#47);
#49=IFCLOCALPLACEMENT(#19,#48);
#50=IFCCARTESIANPOINT((0.000000,0.000000));
#51=IFCAXIS2PLACEMENT2D(#50,$);
#52=IFCRECTANGLEPROFILEDEF(.AREA.,$,#51,8.000000,0.250000);
#53=IFCCARTESIANPOINT((0.000000,0.000000,0.000000));
#54=IFCAXIS2PLACEMENT3D(#53,$,$);
#55=IFCDIRECTION((0.000000,0.000000,1.000000));
#56=IFCEXTRUDEDAREASOLID(#52,#54,#55,3.000000);
#57=IFCSHAPEREPRESENTATION(#3,'Body','SweptSolid',(#56));
#58=IFCPRODUCTDEFINITIONSHAPE($,$,(#57));
#59=IFCWALL('hu5IViv6JWjw7KXkx8LYly',$,'Muro sur',$,$,#49,#58,'Muro sur',.STANDARD.);
#60=IFCPROPERTYSINGLEVALUE('Reference',$,IFCLABEL('M-1'),$);
#61=IFCPROPERTYSINGLEVALUE('IsExternal',$,IFCLABEL('T'),$);
#62=IFCPROPERTYSINGLEVALUE('ThermalTransmittance',$,IFCREAL(0.420000),$);
#63=IFCPROPERTYSET('o$CPcp0DQdq1ERer2FSfs3',$,'Pset_WallCommon',$,(#60,#61,#62));
#64=IFCRELDEFINESBYPROPERTIES('v6JWjw7KXkx8LYly9MZmzA',$,$,$,(#59),#63);
#65=IFCCARTESIANPOINT((0.000000,3.000000,0.000000));
#66=IFCDIRECTION((1.000000,0.000000,0.000000));
#67=IFCAXIS2PLACEMENT3D(#65,$,#66);
#68=IFCLOCALPLACEMENT(#19,#67);
#69=IFCCARTESIANPOINT((0.000000,0.000000));
#70=IFCAXIS2PLACEMENT2D(#69,$);
#71=IFCRECTANGLEPROFILEDEF(.AREA.,$,#70,8.000000,0.250000);
#72=IFCCARTESIANPOINT((0.000000,0.000000,0.000000));
#73=IFCAXIS2PLACEMENT3D(#72,$,$);
#74=IFCDIRECTION((0.000000,0.000000,1.000000));
#75=IFCEXTRUDEDAREASOLID(#71,#73,#74,3.000000);
#76=IFCSHAPEREPRESENTATION(#3,'Body','SweptSolid',(#75));
#77=IFCPRODUCTDEFINITIONSHAPE($,$,(#76));
#78=IFCWALL('0DQdq1ERer2FSfs3GTgt4H',$,'Muro norte',$,$,#68,#77,'Muro norte',.STANDARD.);
#79=IFCPROPERTYSINGLEVALUE('Reference',$,IFCLABEL('M-1'),$);
#80=IFCPROPERTYSINGLEVALUE('IsExternal',$,IFCLABEL('T'),$);
#81=IFCPROPERTYSINGLEVALUE('ThermalTransmittance',$,IFCREAL(0.420000),$);
#82=IFCPROPERTYSET('7KXkx8LYly9MZmzANan_BO',$,'Pset_WallCommon',$,(#79,#80,#81));
#83=IFCRELDEFINESBYPROPERTIES('ERer2FSfs3GTgt4HUhu5IV',$,$,$,(#78),#82);
#84=IFCCARTESIANPOINT((-4.000000,0.000000,0.000000));
#85=IFCDIRECTION((0.000000,1.000000,0.000000));
#86=IFCAXIS2PLACEMENT3D(#84,$,#85);
#87=IFCLOCALPLACEMENT(#19,#86);
#88=IFCCARTESIANPOINT((0.000000,0.000000));
#89=IFCAXIS2PLACEMENT2D(#88,$);
#90=IFCRECTANGLEPROFILEDEF(.AREA.,$,#89,6.000000,0.250000);
#91=IFCCARTESIANPOINT((0.000000,0.000000,0.000000));
#92=IFCAXIS2PLACEMENT3D(#91,$,$);
#93=IFCDIRECTION((0.000000,0.000000,1.000000));
#94=IFCEXTRUDEDAREASOLID(#90,#92,#93,3.000000);
#95=IFCSHAPEREPRESENTATION(#3,'Body','SweptSolid',(#94));
#96=IFCPRODUCTDEFINITIONSHAPE($,$,(#95));
#97=IFCWALL('LYly9MZmzANan_BObo$CPc',$,'Muro oeste',$,$,#87,#96,'Muro oeste',.STANDARD.);
#98=IFCPROPERTYSINGLEVALUE('Reference',$,IFCLABEL('M-1'),$);
#99=IFCPROPERTYSINGLEVALUE('IsExternal',$,IFCLABEL('T'),$);
#100=IFCPROPERTYSINGLEVALUE('ThermalTransmittance',$,IFCREAL(0.420000),$);
#101=IFCPROPERTYSET('Sfs3GTgt4HUhu5IViv6JWj',$,'Pset_WallCommon',$,(#98,#99,#100));
#102=IFCRELDEFINESBYPROPERTIES('ZmzANan_BObo$CPcp0DQdq',$,$,$,(#97),#101);
#103=IFCCARTESIANPOINT((4.000000,0.000000,0.000000));
#104=IFCDIRECTION((0.000000,1.000000,0.000000));
#105=IFCAXIS2PLACEMENT3D(#103,$,#104);
#106=IFCLOCALPLACEMENT(#19,#105);
#107=IFCCARTESIANPOINT((0.000000,0.000000));
#108=IFCAXIS2PLACEMENT2D(#107,$);
#109=IFCRECTANGLEPROFILEDEF(.AREA.,$,#108,6.000000,0.250000);
#110=IFCCARTESIANPOINT((0.000000,0.000000,0.000000));
#111=IFCAXIS2PLACEMENT3D(#110,$,$);
#112=IFCDIRECTION((0.000000,0.000000,1.000000));
#113=IFCEXTRUDEDAREASOLID(#109,#111,#112,3.000000);
#114=IFCSHAPEREPRESENTATION(#3,'Body','SweptSolid',(#113));
#115=IFCPRODUCTDEFINITIONSHAPE($,$,(#114));
#116=IFCWALL('gt4HUhu5IViv6JWjw7KXkx',$,'Muro este',$,$,#106,#115,'Muro este',.STANDARD.);
#117=IFCPROPERTYSINGLEVALUE('Reference',$,IFCLABEL('M-1'),$);
#118=IFCPROPERTYSINGLEVALUE('IsExternal',$,IFCLABEL('T'),$);
#119=IFCPROPERTYSINGLEVALUE('ThermalTransmittance',$,IFCREAL(0.420000),$);
#120=IFCPROPERTYSET('n_BObo$CPcp0DQdq1ERer2',$,'Pset_WallCommon',$,(#117,#118,#119));
#121=IFCRELDEFINESBYPROPERTIES('u5IViv6JWjw7KXkx8LYly9',$,$,$,(#116),#120);
#122=IFCCARTESIANPOINT((0.000000,0.000000,0.000000));
#123=IFCAXIS2PLACEMENT3D(#122,$,$);
#124=IFCLOCALPLACEMENT(#19,#123);
#125=IFCCARTESIANPOINT((0.000000,0.000000));
#126=IFCAXIS2PLACEMENT2D(#125,$);
#127=IFCRECTANGLEPROFILEDEF(.AREA.,$,#126,0.400000,0.400000);
#128=IFCCARTESIANPOINT((0.000000,0.000000,0.000000));
#129=IFCAXIS2PLACEMENT3D(#128,$,$);
#130=IFCDIRECTION((0.000000,0.000000,1.000000));
#131=IFCEXTRUDEDAREASOLID(#127,#129,#130,3.000000);
#132=IFCSHAPEREPRESENTATION(#3,'Body','SweptSolid',(#131));
#133=IFCPRODUCTDEFINITIONSHAPE($,$,(#132));
#134=IFCCOLUMN('$CPcp0DQdq1ERer2FSfs3G',$,'Pilar central',$,$,#124,#133,'Pilar central',.COLUMN.);
#135=IFCPROPERTYSINGLEVALUE('Reference',$,IFCLABEL('P-1'),$);
#136=IFCPROPERTYSINGLEVALUE('LoadBearing',$,IFCLABEL('T'),$);
#137=IFCPROPERTYSET('6JWjw7KXkx8LYly9MZmzAN',$,'Pset_ColumnCommon',$,(#135,#136));
#138=IFCRELDEFINESBYPROPERTIES('DQdq1ERer2FSfs3GTgt4HU',$,$,$,(#134),#137);
#139=IFCCARTESIANPOINT((0.000000,0.000000,0.000000));
#140=IFCAXIS2PLACEMENT3D(#139,$,$);
#141=IFCLOCALPLACEMENT(#23,#140);
#142=IFCCARTESIANPOINT((0.000000,0.000000));
#143=IFCAXIS2PLACEMENT2D(#142,$);
#144=IFCRECTANGLEPROFILEDEF(.AREA.,$,#143,8.000000,6.000000);
#145=IFCCARTESIANPOINT((0.000000,0.000000,0.000000));
#146=IFCAXIS2PLACEMENT3D(#145,$,$);
#147=IFCDIRECTION((0.000000,0.000000,1.000000));
#148=IFCEXTRUDEDAREASOLID(#144,#146,#147,0.300000);
#149=IFCSHAPEREPRESENTATION(#3,'Body','SweptSolid',(#148));
#150=IFCPRODUCTDEFINITIONSHAPE($,$,(#149));
#151=IFCSLAB('KXkx8LYly9MZmzANan_BOb',$,'Forjado de cubierta',$,$,#141,#150,'Forjado de cubierta',.ROOF.);
#152=IFCPROPERTYSINGLEVALUE('Reference',$,IFCLABEL('F-1'),$);
#153=IFCPROPERTYSINGLEVALUE('Thickness',$,IFCREAL(0.300000),$);
#154=IFCPROPERTYSET('Rer2FSfs3GTgt4HUhu5IVi',$,'Pset_SlabCommon',$,(#152,#153));
#155=IFCRELDEFINESBYPROPERTIES('Yly9MZmzANan_BObo$CPcp',$,$,$,(#151),#154);
#156=IFCCARTESIANPOINT((0.000000,-3.000000,0.300000));
#157=IFCDIRECTION((1.000000,0.000000,0.000000));
#158=IFCAXIS2PLACEMENT3D(#156,$,#157);
#159=IFCLOCALPLACEMENT(#23,#158);
#160=IFCCARTESIANPOINT((0.000000,0.000000));
#161=IFCAXIS2PLACEMENT2D(#160,$);
#162=IFCRECTANGLEPROFILEDEF(.AREA.,$,#161,8.000000,0.250000);
#163=IFCCARTESIANPOINT((0.000000,0.000000,0.000000));
#164=IFCAXIS2PLACEMENT3D(#163,$,$);
#165=IFCDIRECTION((0.000000,0.000000,1.000000));
#166=IFCEXTRUDEDAREASOLID(#162,#164,#165,0.900000);
#167=IFCSHAPEREPRESENTATION(#3,'Body','SweptSolid',(#166));
#168=IFCPRODUCTDEFINITIONSHAPE($,$,(#167));
#169=IFCWALL('fs3GTgt4HUhu5IViv6JWjw',$,'Peto sur',$,$,#159,#168,'Peto sur',.PARAPET.);
#170=IFCCARTESIANPOINT((0.000000,3.000000,0.300000));
#171=IFCDIRECTION((1.000000,0.000000,0.000000));
#172=IFCAXIS2PLACEMENT3D(#170,$,#171);
#173=IFCLOCALPLACEMENT(#23,#172);
#174=IFCCARTESIANPOINT((0.000000,0.000000));
#175=IFCAXIS2PLACEMENT2D(#174,$);
#176=IFCRECTANGLEPROFILEDEF(.AREA.,$,#175,8.000000,0.250000);
#177=IFCCARTESIANPOINT((0.000000,0.000000,0.000000));
#178=IFCAXIS2PLACEMENT3D(#177,$,$);
#179=IFCDIRECTION((0.000000,0.000000,1.000000));
#180=IFCEXTRUDEDAREASOLID(#176,#178,#179,0.900000);
#181=IFCSHAPEREPRESENTATION(#3,'Body','SweptSolid',(#180));
#182=IFCPRODUCTDEFINITIONSHAPE($,$,(#181));
#183=IFCWALL('_BObo$CPcp0DQdq1ERer2F',$,'Peto norte',$,$,#173,#182,'Peto norte',.PARAPET.);
#184=IFCRELCONTAINEDINSPATIALSTRUCTURE('fs3GTgt4HUhu5IViv6JWjw',$,$,$,(#40,#59,#78,#97,#116,#134),#20);
#185=IFCRELCONTAINEDINSPATIALSTRUCTURE('mzANan_BObo$CPcp0DQdq1',$,$,$,(#151,#169,#183),#24);
ENDSEC;
END-ISO-10303-21;
